<?xml version="1.0" encoding="UTF-8"?>
<svg xmlns="http://www.w3.org/2000/svg" viewBox="0 0 500.7 500.7">
  <defs>
    <style>
      .cls-1 {
        fill: #ad36ff;
        mix-blend-mode: multiply;
      }

      .cls-1, .cls-2 {
        isolation: isolate;
      }
    </style>
  </defs>
  <g class="cls-2">
    <g id="Layer_2" data-name="Layer 2">
      <g id="Layer_1-2" data-name="Layer 1">
        <path class="cls-1" d="M333.31,0h-165.92c-13.28,0-26.01,5.28-35.4,14.67L14.67,131.99c-9.39,9.39-14.67,22.13-14.67,35.4v165.92c0,13.28,5.28,26.01,14.67,35.4l117.32,117.32c9.39,9.39,22.13,14.67,35.4,14.67h165.92c13.28,0,26.01-5.28,35.4-14.67l117.32-117.32c9.39-9.39,14.67-22.13,14.67-35.4v-165.92c0-13.28-5.28-26.01-14.67-35.4L368.71,14.67c-9.39-9.39-22.12-14.67-35.4-14.67Z"/>
      </g>
    </g>
  </g>
</svg>